<?xml version="1.0" encoding="UTF-8"?>
<svg id="Layer_2" data-name="Layer 2" xmlns="http://www.w3.org/2000/svg" xmlns:xlink="http://www.w3.org/1999/xlink" viewBox="0 0 2284.34 3264.66">
  <defs>
    <style>
      .cls-1 {
        fill: #fff;
      }

      .cls-2 {
        fill: none;
      }

      .cls-3 {
        clip-path: url(#clippath-1);
      }

      .cls-4 {
        fill: #231f20;
      }

      .cls-5 {
        clip-path: url(#clippath-2);
      }

      .cls-6 {
        clip-path: url(#clippath);
      }
    </style>
    <clipPath id="clippath">
      <path class="cls-2" d="M370.11,1680.38l596.03,442.11s-409.02,187.01-596.03,0c-187.01-187.01,0-442.11,0-442.11Z"/>
    </clipPath>
    <clipPath id="clippath-1">
      <path class="cls-2" d="M1914.23,1680.38l-596.03,442.11s409.02,187.01,596.03,0c187.01-187.01,0-442.11,0-442.11Z"/>
    </clipPath>
    <clipPath id="clippath-2">
      <path class="cls-2" d="M1762.59,2484.79c-16.01,55.59-42.95,120.43-89.4,184.02-67.49,92.4-154.21,152.06-238.34,190.65-185.04,84.88-398.87,84.88-583.92,0-84.13-38.59-170.85-98.25-238.34-190.65-46.45-63.59-73.39-128.44-89.4-184.02h1239.4Z"/>
    </clipPath>
  </defs>
  <g id="Layer_1-2" data-name="Layer 1">
    <g>
      <g>
        <polygon class="cls-4" points="1142.17 1635.98 415.89 166.03 110.96 2122.49 1142.17 1635.98"/>
        <path class="cls-4" d="M46.12,2209.16L390.43,0l820.09,1659.81L46.12,2209.16ZM441.35,332.06L175.8,2035.81l898.01-423.67L441.35,332.06Z"/>
      </g>
      <g>
        <polygon class="cls-4" points="1142.17 1635.98 1868.45 166.03 2173.38 2122.49 1142.17 1635.98"/>
        <path class="cls-4" d="M2238.22,2209.16l-1164.41-549.35L1893.9,0l344.32,2209.16ZM1210.52,1612.14l898.01,423.67-265.54-1703.74-632.46,1280.08Z"/>
      </g>
      <g>
        <circle class="cls-1" cx="1142.17" cy="2122.49" r="1091.45"/>
        <path class="cls-4" d="M1142.17,3264.66c-154.17,0-303.75-30.2-444.6-89.78-136.01-57.53-258.16-139.88-363.04-244.75-104.88-104.88-187.23-227.02-244.76-363.04C30.21,2426.24,0,2276.66,0,2122.49s30.21-303.75,89.78-444.6c57.53-136.01,139.88-258.16,244.76-363.04,104.88-104.88,227.02-187.23,363.04-244.76,140.85-59.57,290.43-89.78,444.6-89.78s303.75,30.21,444.6,89.78c136.01,57.53,258.16,139.88,363.04,244.76,104.88,104.88,187.22,227.02,244.75,363.04,59.57,140.85,89.78,290.43,89.78,444.6s-30.2,303.75-89.78,444.6c-57.53,136.01-139.88,258.16-244.75,363.04-104.88,104.88-227.02,187.22-363.04,244.75-140.85,59.57-290.43,89.78-444.6,89.78ZM1142.17,1081.76c-573.86,0-1040.72,466.87-1040.72,1040.72s466.87,1040.72,1040.72,1040.72,1040.72-466.87,1040.72-1040.72-466.87-1040.72-1040.72-1040.72Z"/>
      </g>
      <polygon class="cls-4" points="1143.62 2037.35 1043.53 1729.31 719.64 1729.31 981.67 1538.93 881.58 1230.88 1143.62 1421.26 1405.66 1230.88 1305.57 1538.93 1567.6 1729.31 1243.71 1729.31 1143.62 2037.35"/>
      <g>
        <g class="cls-6">
          <path class="cls-4" d="M370.11,1680.38l596.03,442.11s-409.02,187.01-596.03,0c-187.01-187.01,0-442.11,0-442.11Z"/>
          <polygon class="cls-1" points="568.34 2156.16 538.85 2065.4 443.41 2065.4 520.62 2009.3 491.13 1918.53 568.34 1974.63 645.55 1918.53 616.06 2009.3 693.27 2065.4 597.83 2065.4 568.34 2156.16"/>
        </g>
        <g class="cls-3">
          <path class="cls-4" d="M1914.23,1680.38l-596.03,442.11s409.02,187.01,596.03,0c187.01-187.01,0-442.11,0-442.11Z"/>
          <polygon class="cls-1" points="1716 2156.16 1745.49 2065.4 1840.93 2065.4 1763.72 2009.3 1793.21 1918.53 1716 1974.63 1638.79 1918.53 1668.28 2009.3 1591.07 2065.4 1686.51 2065.4 1716 2156.16"/>
        </g>
      </g>
      <g class="cls-5">
        <g>
          <path class="cls-4" d="M1762.59,2484.79c-16.01,55.59-42.95,120.43-89.4,184.02-67.49,92.4-154.21,152.06-238.34,190.65-185.04,84.88-398.87,84.88-583.92,0-84.13-38.59-170.85-98.25-238.34-190.65-46.45-63.59-73.39-128.44-89.4-184.02h1239.4Z"/>
          <path class="cls-4" d="M1142.89,2931.99c-100.83,0-201.66-21.54-295.58-64.63-100.24-45.98-181.57-111.06-241.74-193.42-40.48-55.42-71.01-118.24-90.73-186.74l-3.2-11.1h1262.5l-3.2,11.1c-19.73,68.5-50.25,131.33-90.73,186.74-60.17,82.37-141.5,147.44-241.74,193.42-93.93,43.09-194.75,64.63-295.59,64.63ZM534.86,2493.49c19.19,62.23,47.68,119.44,84.75,170.2,58.39,79.94,137.44,143.15,234.95,187.88,183.24,84.06,393.42,84.06,576.67,0,97.5-44.73,176.55-107.94,234.94-187.88,37.08-50.76,65.56-107.97,84.75-170.2H534.86Z"/>
        </g>
        <path id="_บน" data-name="บน" class="cls-1" d="M1733.18,2463.05H507.69v236.63h1268.97v-236.63h-43.48ZM551.16,2656.2v-149.67h160.77v149.67h-160.77ZM755.41,2656.2v-149.67h160.77v149.67h-160.77ZM959.66,2656.2v-149.67h160.77v149.67h-160.77ZM1163.91,2656.2v-149.67h160.77v149.67h-160.77ZM1368.16,2656.2v-149.67h160.77v149.67h-160.77ZM1733.18,2656.2h-160.77v-149.67h160.77v149.67Z"/>
        <path id="_ล่าง" data-name="ล่าง" class="cls-1" d="M1760.23,2652.51H534.74v340.59h1268.97v-340.59h-43.48ZM578.21,2949.63v-253.64h160.77v253.64h-160.77ZM782.46,2949.63v-253.64h160.77v253.64h-160.77ZM986.71,2949.63v-253.64h160.77v253.64h-160.77ZM1190.96,2949.63v-253.64h160.77v253.64h-160.77ZM1395.21,2949.63v-253.64h160.77v253.64h-160.77ZM1760.23,2949.63h-160.77v-253.64h160.77v253.64Z"/>
      </g>
      <path class="cls-4" d="M1142.89,2945.04c-102.69,0-205.37-21.94-301.02-65.82-102.29-46.92-185.33-113.4-246.83-197.59-41.38-56.65-72.58-120.86-92.73-190.83l-7.99-27.75h1297.16l-7.99,27.75c-20.15,69.97-51.35,134.18-92.73,190.83-61.5,84.19-144.55,150.66-246.83,197.59-95.65,43.88-198.34,65.82-301.02,65.82ZM552.81,2514.6c18.54,54.32,44.49,96.43,77.34,141.39,57.06,78.12,134.4,139.93,229.85,183.71,179.78,82.48,386.01,82.48,565.79,0,95.45-43.79,172.79-105.6,229.85-183.71,32.85-44.97,58.8-87.06,77.34-141.39H552.81Z"/>
    </g>
  </g>
</svg>