<svg xmlns="http://www.w3.org/2000/svg" viewBox="0 0 57.6 27.6"><path d="M17.54 10.24H12.6l.06-.17h.5c.59 0 1.06-.13 1.42-.4.21-.16.41-.56.6-1.21l1.48-6.68q.24-.81.18-1.08c-.04-.14-.16-.25-.35-.34a2 2 0 0 0-.91-.19h-.5l.08-.17h4.93l-.08.17h-.52c-.58 0-1.05.13-1.39.4-.22.17-.42.57-.6 1.21l-1.49 6.68c-.16.54-.22.9-.17 1.08.08.35.5.53 1.25.53h.52l-.06.17Zm10.98-6.77c-.26.04-.46.12-.61.25-.22.15-.43.4-.65.76l-3.43 5.92h-.19l-1.36-5.99c-.06-.31-.1-.5-.14-.58-.13-.21-.38-.33-.74-.36l.04-.18h2.59l-.02.18c-.54.05-.83.21-.88.48-.04.16-.02.42.06.79l.91 4.31 2.5-4.26c.24-.39.38-.67.42-.83.05-.25-.06-.4-.31-.47l-.08-.02.02-.18h1.91l-.02.18Zm2.88 0c-.26.04-.46.12-.61.25-.22.15-.43.4-.65.76l-3.43 5.92h-.19l-1.36-5.99c-.06-.31-.1-.5-.14-.58-.13-.21-.38-.33-.74-.36l.04-.18h2.11l-.02.18c-.22.05-.35.21-.4.48-.04.16-.02.42.06.79l.91 4.31 2.5-4.26c.24-.39.38-.67.42-.83.05-.25-.14-.4-.55-.47l-.08-.02.02-.18h2.15l-.02.18Zm3.37 1.01L31.9 9c-.19.33-.15.43.13.31s.61-.38.99-.77l.98-.82.68-.54s-.08.12-.16.21-.17.2-.27.31c-.1.12-.2.23-.3.34s-.18.21-.25.29c-.05.06-.12.15-.22.27s-.2.25-.31.39-.22.26-.33.38-.2.2-.28.25c-.17.09-.31.15-.41.19-.11.04-.22.07-.32.1-.11.03-.24.06-.39.1s-.36.09-.61.16h-.73c.3-.14.51-.24.62-.32.19-.16.45-.49.77-1l3.68-5.74h.17l.95 5.8c.08.38.16.64.25.77.14.22.37.35.71.37l-.04.18H34.7l.02-.18c.49-.02.76-.17.82-.43.02-.14 0-.38-.06-.71l-.72-4.44Zm8.09 3.98c-.12.58-.41 1.06-.86 1.43-.49.34-.99.5-1.5.5-.2 0-.39-.01-.56-.04-.1-.02-.3-.09-.62-.2-.29-.1-.48-.14-.59-.14-.18 0-.31.13-.4.38h-.19l.5-2.39h.19c-.02.45 0 .79.07 1.02.1.3.3.54.61.72q.39.24.96.24c.57 0 .7-.1 1.01-.29.33-.19.53-.47.61-.84.17-.45.09-.82-.24-1.13-.2-.18-.5-.41-.9-.71s-.7-.54-.91-.73c-.42-.41-.62-.85-.58-1.33.1-.54.4-.98.89-1.34.46-.33.97-.49 1.52-.49.22 0 .52.09.89.28.18.08.3.12.37.12.18 0 .33-.13.44-.4h.18l-.5 2.41h-.19c.07-.87-.14-1.46-.64-1.75-.26-.17-.54-.25-.85-.25s-.62.1-.91.29c-.3.22-.49.48-.55.79-.05.28-.02.51.1.68.08.34.47.73 1.16 1.15.5.3.77.5.83.6.26.18.46.39.62.61.09.26.1.53.04.8ZM8.75 24.84c-.2-.22-.29-.52-.29-.91v-2.19h-.7v-.51h.7V20.2l.63-.19h.03v1.22h1.1v.51h-1.1v2.13c0 .26.05.46.15.58.1.13.25.19.46.19.22 0 .4-.03.54-.08l.05.49q-.255.12-.75.12c-.495 0-.61-.11-.8-.33Zm2.77.08c-.28-.16-.5-.4-.65-.7s-.23-.66-.23-1.07.08-.76.23-1.07c.15-.3.37-.54.65-.7s.61-.24.99-.24c.58 0 1.03.18 1.37.54q.51.54.51 1.47c0 .93-.17 1.11-.51 1.47s-.79.54-1.37.54q-.57 0-.99-.24m1.89-.66c.22-.27.32-.64.32-1.1s-.11-.84-.32-1.1-.52-.4-.9-.4-.67.13-.89.4-.32.64-.32 1.1.11.84.32 1.1.51.4.89.4.68-.13.9-.4m6.02 3.34c-.6 0-1.18-.17-1.75-.5-.6-.31-.97-.91-.99-1.61 0-1.3.66-2.69 2.01-4.24h-.14c-.79 0-1.49-.23-2.15-.69-.69-.4-1.1-1.13-1.1-1.94 0-1.51.86-2.73 2.56-3.63 1.34-.7 2.77-1.05 4.25-1.05.72 0 1.35.11 1.93.33.11.03.22.08.34.15.11.08.15.18.12.27l-.03.08-.17.04c-.14-.02-.31-.04-.51-.13-.41-.11-.87-.17-1.34-.17s-1.03.05-1.74.17c-1.01.12-1.97.44-2.86.96-.76.47-1.32 1.06-1.71 1.8-.18.38-.27.76-.27 1.16.01.64.35 1.22.91 1.55.55.37 1.18.56 1.86.56q.375 0 .75-.09c1.46-1.42 2.98-2.62 4.59-3.64 2.21-1.46 4-2.21 5.33-2.21 1.18 0 1.43.51 1.43.94 0 1.39-1.77 2.75-5.41 4.17-1.55.55-3.14.95-4.73 1.21-.67.68-1.3 1.43-1.84 2.28-.78 1.14-1.18 2.01-1.18 2.59 0 .35.21.62.66.83.4.16.81.25 1.22.25 1.19-.06 2.3-.41 3.32-1.04 1.35-.75 2.04-1.57 2.04-2.43 0-.21-.12-.41-.32-.53-.21-.11-.41-.17-.62-.17a4.8 4.8 0 0 0-2.59.86c-.66.42-1.33.95-2.05 1.64l-.63.66c-.12.12-.21.19-.3.19s-.16-.04-.2-.1c-.05-.08-.05-.19 0-.3.07-.14.15-.25.25-.36.13-.19.32-.41.58-.67.53-.5 1.09-.92 1.69-1.29 1.27-.78 2.38-1.17 3.3-1.17.33 0 .63.1.95.29.3.21.48.56.48.92 0 1.06-.75 2.04-2.23 2.93a7.15 7.15 0 0 1-3.61 1.14h-.08Zm9.92-12.28c-1.32 0-2.84.64-4.52 1.9-1.24.99-2.41 2.04-3.47 3.13 1.29-.18 2.56-.51 3.77-.99 3.36-1.35 5.07-2.59 5.07-3.66 0-.09 0-.38-.85-.38m-2.68 12.25s-.08 0-.15-.02l-.12-.02c-.15-.07-.2-.13-.2-.21 0-.06 0-.17.53-.75l.5-.53c.7-.83 1.11-1.34 1.29-1.62.17-.22.27-.46.32-.71-.15.02-.33.08-.47.18-.29.17-.59.38-.94.64l-.58.51c-.2.2-.36.3-.49.3h-.05l-.1-.06v-.03l-.07-.17c0-.08.04-.15.09-.25.03-.07.1-.15.22-.27.15-.15.37-.35.65-.58.43-.36.86-.66 1.31-.91.28-.19.62-.32.97-.35.25 0 .4.07.49.2.1.12.16.27.16.44 0 .14-.02.32-.06.5l-.03.1 1.05-.9.12-.05c.06-.02.1-.03.15-.03.19 0 .33.02.44.05.08.03.26.11.26.26 0 .07-.05.14-.19.29l-.27.3c-.2.3-.36.56-.47.79-.09.2-.14.41-.16.65 0 .09.03.17.1.27.05.07.12.1.22.1.14-.01.27-.05.41-.12.15-.09.28-.2.42-.3.03-.18.13-.38.27-.57.29-.43.65-.81 1.11-1.14.38-.29.77-.51 1.19-.68q.495-.24 1.14-.24c.22 0 .41.05.58.15.16.13.23.31.23.52 0 .53-.33 1.03-1.02 1.53-.74.53-1.53.86-2.42 1.03-.04.09-.08.18-.09.23v.1q-.03.09-.03.15c0 .17.04.27.12.34.11.08.22.12.36.12.44 0 .87-.12 1.32-.38.41-.23.74-.44 1.02-.63.22-.16.49-.37.81-.64.59-.47.62-.49.64-.5.06-.05.14-.1.22-.12.17-.23.38-.45.63-.65.84-.68 1.64-1.03 2.39-1.03.62 0 .98.29 1.03.83l.11-.16c.14-.2.26-.37.39-.51.18-.16.29-.16.53-.16l.27-.01c.12 0 .26.01.33.12.04.07.04.16-.02.26-.12.2-.33.46-.43.57l-.89 1.15-.77 1.05-.32.45c-.09.12-.15.26-.18.39h.06c.1 0 .2-.03.31-.09.15-.08.3-.16.45-.27.22-.16.43-.33.66-.52l.82-.7.23-.21c.07-.08.12-.12.17-.16.17-.15.26-.22.28-.24l.57-.46c.33-.28.66-.57.98-.89.3-.29.59-.58.88-.88l.53-.6c-.05 0-.11 0-.16-.01-.16 0-.23-.04-.28-.09l-.02-.02-.03-.08-.02-.1c.01-.11.08-.29.35-.32.12-.02.25-.02.39-.02h.25l1.29-1.72c.08-.14.17-.28.39-.28h.39l.27-.02c.13 0 .29.02.35.13.03.05.04.13-.03.24l-.37.48s-.85 1.13-.87 1.16h.43c.32-.01.43.14.47.23l.04.09c0 .31-.46.35-.87.35-.13 0-.26 0-.37-.02-.06 0-.11-.01-.15-.01l-2.03 2.68c-.41.53-.82 1.09-1.24 1.7l-.12.17s-.06.1-.1.15l-.07.1c-.08.09-.12.16-.12.18h.01c.1 0 .15-.01.2-.03.23-.06.45-.15.65-.26.18-.1.6-.4 1.37-.99q.555-.405.87-.63a.6.6 0 0 1 .09-.21c.28-.43.65-.81 1.1-1.14.38-.29.77-.51 1.2-.68q.495-.24 1.14-.24c.22 0 .41.05.58.15.15.13.23.31.23.52 0 .53-.33 1.03-1.02 1.53-.74.53-1.53.86-2.41 1.03-.04.09-.08.18-.08.23-.02.14-.03.2-.03.25 0 .17.04.28.12.34.11.08.22.12.36.12.44 0 .87-.12 1.32-.38.41-.23.74-.44 1.02-.63.22-.16.49-.37.81-.64.55-.44.62-.49.65-.5.12-.09.22-.14.32-.14h.03l.07.02s.13.07.13.22c0 .11-.05.22-.13.3-.07.08-.14.16-.24.22l-.39.32c-.86.7-1.42 1.12-2.1 1.47-.53.28-1.08.42-1.64.42-.38 0-.75-.15-1.01-.42a1.58 1.58 0 0 1-.42-1.08v-.09c-.44.32-.88.63-1.1.78-.91.57-1.55.86-1.91.86-.26 0-.7-.11-.7-.84.03-.62.24-1.16.63-1.65l-.38.28s-.08.07-.12.09l-.04.05c-.06.07-.13.14-.2.2-.51.5-1.09.96-1.7 1.37-.31.25-.68.41-1.1.48-.33 0-.7-.15-.7-.84v-.08c-.72.61-1.37.92-1.93.92-.49 0-1.08-.21-1.08-1.23 0-.16.02-.32.07-.5-.74.6-1.25.96-1.84 1.26-.53.28-1.08.42-1.63.42-.38 0-.75-.15-1.02-.42-.26-.29-.4-.62-.41-1l-.15.09c-.27.14-.54.21-.82.21s-.53-.1-.74-.31c-.19-.24-.28-.5-.28-.79 0-.17.02-.34.05-.48l.02-.07c-.37.34-.76.74-1.16 1.17l-.42.49-.33.39c-.05.07-.1.14-.16.21-.16.22-.33.45-.57.53l-.11.02c-.08.01-.15.02-.2.02l-.35.02Zm13.94-4.06c-.26 0-.79.22-1.81 1.28-1.04 1.05-1.26 1.62-1.26 1.92 0 .13.03.19.21.19.48 0 1.13-.37 1.93-1.11.83-.75 1.25-1.41 1.25-1.94 0-.25-.09-.35-.33-.35Zm10.33-.25c-.4.06-.72.22-.98.49-.44.39-.83.8-1.22 1.28.57-.14 1.09-.37 1.59-.68.48-.33.73-.64.73-.91 0-.06 0-.1-.04-.16s-.04-.01-.08-.02m-15.17 0c-.4.06-.72.22-.98.49-.43.38-.83.8-1.22 1.28.57-.14 1.09-.37 1.59-.68.48-.33.73-.64.73-.91 0-.06 0-.1-.04-.17 0 0-.04-.01-.08-.01"/><path d="M24.06 14.63c.09.02.17.04.25.05.12 0 .09-.09.02-.15-.03-.02-.06-.02-.09-.04-.05.05-.12.09-.18.14m-3.12-.12c.58-.08 1.09-.14 1.52-.14.06 0 .13 0 .19.01.09-.09.17-.17.26-.25-.25-.03-.51-.06-.78-.06-.25 0-.49.02-.74.04-.15.13-.31.25-.44.4Z"/><path d="M22.12 13.82c.36 0 .7.03 1.02.08l.03-.03c.33-.35.75-.57 1.28-.64.09 0 .18.04.24.09.05.09.07.16.07.22v.05c0 .23-.12.46-.35.71l.06.03c.12.1.16.22.14.34.41-.41.62-.82.62-1.25 0-.22-.07-.38-.2-.49-.18-.11-.38-.16-.62-.16q-.735 0-1.32.27c-.49.2-.95.46-1.4.8.14 0 .28-.03.42-.03ZM21 16.76c.02-.09.07-.22.15-.38 1.06-.18 2.03-.58 2.92-1.22.11-.08.19-.15.28-.23-.02 0-.04.01-.06.01a1.7 1.7 0 0 1-.46-.12q-1.095.69-2.37.93c.3-.4.63-.77.96-1.12-.44 0-.99.06-1.68.16h-.01c-.11.13-.22.25-.31.39-.16.22-.28.46-.35.72-.16.13-.33.26-.52.38-.18.09-.37.15-.57.16-.16 0-.29-.05-.38-.18a.7.7 0 0 1-.15-.42c0-.15.03-.28.06-.4-.19.09-.38.18-.56.29-.12.08-.24.16-.35.25.03.24.1.47.27.67.22.22.48.33.79.33.29 0 .6-.07.91-.24.15-.08.28-.17.41-.26 0 .06-.01.12-.01.19 0 .46.15.84.46 1.19.29.29.69.46 1.11.46.12 0 .24-.01.36-.02.33-.25.66-.5.99-.73-.39.16-.77.24-1.17.24-.2 0-.36-.05-.53-.18-.13-.11-.2-.27-.2-.48v-.05c0-.07.02-.18.04-.33Zm-3.21-1.24c.26-.15.52-.28.79-.4.01-.04.02-.08.04-.11.04-.09.1-.18.15-.28-.28.11-.57.23-.84.38-.12.06-.22.13-.33.2-.02.12-.03.24-.04.38.08-.05.15-.11.23-.16ZM6.19 10.6c1.95-.31 3.85-.8 5.66-1.44 4.28-1.66 6.41-3.29 6.41-4.88 0-.66-.53-.99-1.57-.99-1.57 0-3.69.88-6.34 2.63-1.99 1.26-3.84 2.74-5.57 4.4-.31.07-.62.11-.93.11-.86 0-1.64-.24-2.32-.69A2.38 2.38 0 0 1 .36 7.75c0-.49.11-.97.35-1.46.49-.93 1.21-1.66 2.12-2.23 1.1-.64 2.27-1.02 3.49-1.17.82-.13 1.53-.2 2.12-.2s1.15.07 1.68.22c.2.09.38.13.55.15.15 0 .11-.11.02-.18a1.7 1.7 0 0 0-.38-.16c-.68-.26-1.43-.38-2.27-.38-1.77 0-3.45.42-5.04 1.24-2 1.05-3 2.45-3 4.23 0 .93.48 1.75 1.26 2.21.75.53 1.57.8 2.5.8.11 0 .29-.02.53-.04-1.75 1.94-2.63 3.69-2.63 5.28.02.78.44 1.46 1.11 1.81.68.4 1.39.6 2.12.58 1.53-.05 2.96-.51 4.28-1.35 1.74-1.04 2.61-2.17 2.61-3.4 0-.38-.2-.77-.51-.99-.35-.22-.69-.33-1.06-.33-1.08 0-2.37.46-3.89 1.39-.75.46-1.41.97-2.01 1.53a6 6 0 0 0-.69.8c-.11.11-.2.24-.27.38-.05.13-.04.27.11.27.05 0 .13-.05.26-.18l.77-.8c.82-.78 1.64-1.46 2.48-1.99.93-.64 1.95-1 3.11-1.06.31-.02.6.05.91.22.27.16.46.46.46.77 0 1.1-.84 2.12-2.52 3.05a8.33 8.33 0 0 1-4.07 1.28c-.53 0-1.04-.11-1.53-.31-.58-.27-.88-.64-.88-1.13 0-.73.48-1.79 1.44-3.2.66-1.02 1.42-1.96 2.32-2.81ZM11.2 6c2.06-1.55 3.91-2.32 5.54-2.32.79 0 1.17.2 1.17.6 0 1.37-2.06 2.89-6.19 4.55-1.61.64-3.27 1.06-5.01 1.26A46 46 0 0 1 11.2 6"/><path d="M15.69 16.78q.45-.765 1.29-1.38c.28-.28.55-.52.78-.73l-.08.29.13-.08c.38-.2.77-.36 1.16-.5.08-.12.15-.24.24-.37l.33-.36c.13-.13.18-.2.18-.24 0-.05-.07-.11-.2-.16-.13-.04-.27-.05-.4-.05h-.09c-.05 0-.11.02-.18.04-.04 0-.07.02-.09.05l-1.7 1.46c.11-.24.2-.46.27-.68.05-.24.07-.44.07-.57 0-.16-.05-.31-.16-.44-.09-.13-.24-.18-.4-.18h-.05c-.38.04-.77.16-1.11.4-.57.31-1.08.68-1.55 1.08-.33.27-.58.51-.77.69-.13.13-.2.22-.24.29-.05.09-.09.16-.09.22 0 .04 0 .07.02.09l.02.04c.09.09.29-.02.57-.29.16-.15.4-.35.71-.62.42-.31.79-.57 1.13-.77.18-.13.42-.22.69-.24.04-.02.07-.02.09.04.02.02.02.07.02.13-.05.31-.18.62-.4.91-.24.37-.77 1.02-1.57 1.97l-.6.64c-.4.44-.6.71-.6.8 0 .04.04.07.11.11.15.02.26.04.31.04l.42-.02c.07 0 .18-.02.33-.04.33-.11.55-.53.8-.84.2-.26.42-.49.62-.73ZM57.38 5.52a2.2 2.2 0 0 0-.6-.07c-.2 0-.37.09-.46.26l-6.34 7.8a.86.86 0 0 0-.26-.55 1.07 1.07 0 0 0-.57-.16c-.68 0-1.32.16-1.88.48-.75.35-1.41.77-1.94 1.28-.19.15-.35.32-.51.5-.07.02-.15.06-.25.14-.04.02-.29.22-.75.58-.38.33-.71.58-.99.79-.35.24-.75.49-1.24.77-.55.31-1.1.48-1.66.48-.2 0-.36-.05-.53-.18-.13-.11-.2-.27-.2-.48v-.05c0-.07.02-.18.04-.33.02-.09.07-.22.15-.38 1.06-.18 2.03-.58 2.92-1.22.79-.57 1.17-1.13 1.17-1.72 0-.22-.07-.38-.2-.49-.18-.11-.38-.16-.62-.16q-.735 0-1.32.27c-.49.2-.95.46-1.41.8-.51.37-.95.8-1.3 1.33-.08.1-.14.21-.2.32-.25.18-.57.41-.98.72-.88.68-1.43 1.08-1.66 1.2-.26.15-.53.26-.82.33-.07.02-.15.04-.22.04s-.13-.02-.16-.04c-.15-.11.02-.33.11-.42.07-.11.15-.2.2-.29s.11-.16.15-.22c.51-.73 1-1.41 1.5-2.05l2.48-3.29s.13 0 .27.02c.13.02.27.02.42.02q.9 0 .9-.27c0-.02-.02-.04-.04-.05-.05-.13-.2-.2-.42-.2l-.29.02h-.55s.07-.05.13-.15c.05-.09.11-.16.13-.18l.99-1.32.44-.57c.09-.15.02-.22-.26-.22l-.33.02h-.48c-.2 0-.26.13-.35.27l-1.61 2.14c-.31-.02-.58-.02-.82.02-.18.02-.28.11-.29.26 0 .02.02.05.04.11.04.04.09.05.15.05.24.02.44.04.58.04-.02 0-.13.16-.18.24l-.2.24-.44.49c-.35.37-.69.71-1.06 1.06-.38.38-.79.73-1.19 1.08l-.68.55s-.13.11-.35.29c-.05.04-.1.09-.15.14-.1.09-.2.18-.33.3l-.99.84c-.27.24-.53.44-.8.64-.18.13-.37.24-.55.33-.16.09-.33.15-.49.15-.05 0-.09-.02-.15-.05-.02-.05-.04-.09-.02-.15.04-.16.11-.35.24-.53l.38-.55.77-1.04.17-.22 1.08-1.39c.13-.15.37-.44.49-.66.09-.16.02-.24-.24-.24l-.33.02c-.29 0-.36 0-.53.15-.15.16-.29.37-.46.6l-.24.33-.09.11c-.05.05-.07.09-.09.13.02-.07.02-.16.02-.29 0-.68-.37-1.02-1.1-1.02-.86 0-1.79.4-2.78 1.21-.32.27-.58.54-.8.81-.07.02-.14.06-.23.14-.04.02-.29.22-.75.58-.1.09-.19.15-.28.23 1.17-.66 2.19-1.08 3.08-1.26.83-.79 1.47-1.22 1.9-1.22.36 0 .55.18.55.57 0 .27-.1.57-.27.88.24.21.31.48.31.73 0 .74-.48 1.47-1.44 2.2.09.3.29.46.62.46.48-.07.9-.26 1.26-.55.73-.49 1.41-1.04 2.03-1.64.12-.1.21-.21.32-.32.08-.05.16-.14.23-.18l.49-.37c.42-.31.73-.57.93-.73-.38.46-.68.8-.86 1.04-.46.57-.69 1.19-.73 1.9 0 .57.24.86.69.86.38 0 1.13-.33 2.21-1 .31-.21.98-.68 1.58-1.13q-.03.21-.03.42c0 .46.15.84.46 1.19.29.29.69.46 1.11.46.64 0 1.28-.16 1.9-.49.82-.42 1.5-.93 2.5-1.75l.05-.04a2.9 2.9 0 0 0-.24 1.19c0 .31.07.58.24.82.17.2.38.31.62.31.37 0 .69-.09 1-.29.42-.27.8-.58 1.15-.93 0 .04 0 .07-.02.09v.15c-.02.27.09.51.29.73.2.16.42.25.69.25.6 0 1.21-.18 1.77-.53.8-.4 1.55-.9 2.23-1.46l.05-.04c.79-.64 1.17-1.02 1.17-1.15a.2.2 0 0 0-.05-.13c-.02-.04-.05-.05-.11-.05-.26.13-.46.26-.58.42-.31.27-.6.51-.9.73-.57.44-1.19.84-1.88 1.21-.42.24-.88.38-1.37.44-.07 0-.15-.02-.2-.05-.05-.05-.07-.11-.05-.18.02-.18.07-.33.15-.44.15-.24.31-.44.48-.64l8.75-10.4a.4.4 0 0 0 .16-.2c.02-.05.04-.09.04-.15 0-.09-.07-.15-.22-.2Zm-15.97 8.35c.33-.35.75-.57 1.28-.64.09 0 .18.04.24.09.05.09.07.16.07.22v.05c0 .38-.31.79-.95 1.22q-1.095.69-2.37.93c.53-.69 1.1-1.32 1.73-1.88Zm7.4.79-.26.22-1.92 1.97c-.31.33-.66.62-1.02.86-.24.18-.51.29-.82.33-.09 0-.18-.04-.24-.09a.36.36 0 0 1-.11-.26c0-.31.24-.77.71-1.39.53-.68 1.13-1.3 1.81-1.83.42-.35.84-.62 1.3-.86.35-.2.69-.29 1.04-.31.09 0 .15.02.2.05.05.05.09.13.09.18 0 .16-.26.53-.79 1.11Z"/><path d="M30.62 15.7c0-.2-.08-.35-.19-.47-.05.08-.13.16-.18.24.05.07.07.14.07.23 0 .47-.31.96-.9 1.48-.02.11-.04.22-.04.33 0 .04 0 .07.01.11.81-.64 1.23-1.28 1.23-1.91Z"/><path d="M25.8 16.7c-.02.11-.04.22-.04.33 0 .9.38 1.33 1.15 1.33.07 0 .14-.02.21-.03 2.38-1.19 2.94-2.07 2.94-2.64a7 7 0 0 1-.8.84c-1 .91-1.81 1.37-2.43 1.37-.27 0-.4-.13-.4-.38 0-.4.28-.94.83-1.61-.47.2-.96.46-1.47.79Zm-3.39 1.5c.34-.08.67-.21 1-.38.82-.42 1.5-.93 2.5-1.75L26 16c-.05.12-.08.24-.12.36.61-.37 1.19-.65 1.75-.84.12-.13.22-.26.36-.4.01-.01.02-.02.04-.03-1.11.3-2.43.96-3.98 1.99-.56.35-1.1.74-1.64 1.13Z"/></svg>