<svg width="420" height="107" viewBox="0 0 420 107" fill="currentColor" xmlns="http://www.w3.org/2000/svg">
<g clip-path="url(#clip0_2002_56)">
<path d="M74.3886 31.4836L64.5423 37.2162L62.2721 32.9592L19.1647 53.1605L72.1184 62.1446L73.6099 76.3782L0 98.3554L51.6998 70.8937L0.237579 60.9041L6.52022 47.1928L70.3366 17.4851L74.3886 31.4836Z" fill="currentColor"/>
<path d="M98.3708 36.1585L86.7559 107L76.6324 77.6971L84.2745 39.841L55.2502 47.3365L85.5812 33.3249L92.2598 0L102.924 8.50098L99.9679 26.7304L136.04 10.0288L123.66 29.6032L98.3708 36.1716V36.1585Z" fill="currentColor"/>
<path d="M179.781 32.0843L175.953 55.7591L169.512 31.0396L173.749 14.6253L181.748 20.9978L180.507 27.9448L193.574 16.8583L200.728 27.2397L189.166 37.5296L190.327 28.3888L179.794 32.0843H179.781Z" fill="currentColor"/>
<path d="M335.264 32.0844L298.333 49.7653L315.663 64.6257L314.726 76.8092L275.341 89.084L304.589 69.5095L287.167 53.4608L289.516 41.9826L335.25 32.0844H335.264Z" fill="currentColor"/>
<path d="M153.252 50.1571L116.11 61.544L77.9524 77.7363L108.732 53.5784L151.008 14.6123L164.51 56.9082L158.478 70.6456L153.252 50.144V50.1571ZM153.186 49.8437L147.603 27.8926L122.591 51.5935L153.186 49.8437Z" fill="currentColor"/>
<path d="M145.689 63.2023L110.118 34.4871H111.768L169.499 36.5111L148.817 75.8689L134.734 81.3665L145.689 63.2154V63.2023ZM145.874 62.9281L157.621 43.4973L133.77 43.3928L145.874 62.9281Z" fill="currentColor"/>
<path d="M207.499 29.995L212.29 42.8052L202.972 48.2375L200.451 46.2134L176.64 73.1789L183.635 93.7458L365.832 94.8688L174.528 107.026L163.639 70.0971L207.525 30.0211L207.499 29.995Z" fill="currentColor"/>
<path d="M321.946 54.0876L350.864 70.0188L314.422 57.4828L309.301 50.9144L343.565 33.1551L345.822 39.175L341.427 41.7344L340.239 39.9715L322.051 49.6347L340.041 51.4759L321.959 54.0876H321.946Z" fill="currentColor"/>
<path d="M220.698 67.4594L217.847 80.8703L208.951 75.6339L210.653 67.2504L185.1 66.6367L211.485 63.0457L218.52 28.0885L227.944 33.2857L221.925 61.6092L246.567 58.2402L254.434 22.2775L260.624 40.2066L251.055 87.739L241.275 82.5417L244.469 67.9817L220.698 67.4463V67.4594Z" fill="currentColor"/>
<path d="M280.317 65.0958L285.121 74.5108L278.997 66.924L264.848 86.0805L256.532 84.9967L263.845 44.1894L271.632 48.0285L279.459 63.4113L286.613 56.6079L280.33 65.1088L280.317 65.0958ZM277.598 65.1741L266.92 51.9069L263.435 78.6503L277.598 65.1741Z" fill="currentColor"/>
<path d="M339.184 33.1551L331.066 22.2906L342.523 17.7724L396.137 29.8122L397.879 40.3372L357.306 54.4663L419.974 85.4015L336.623 56.7646V56.5165L381.605 36.263L339.738 28.0885L339.17 33.1551H339.184Z" fill="currentColor"/>
</g>
<defs>
<clipPath id="clip0_2002_56">
<rect width="420" height="107" fill="currentColor"/>
</clipPath>
</defs>
</svg>
